<?xml version="1.0" encoding="UTF-8"?>
<!DOCTYPE svg PUBLIC "-//W3C//DTD SVG 1.1//EN" "http://www.w3.org/Graphics/SVG/1.1/DTD/svg11.dtd">
<svg xmlns="http://www.w3.org/2000/svg" style="background: transparent; background-color: transparent; color-scheme: light;" xmlns:xlink="http://www.w3.org/1999/xlink" version="1.1" width="595px" height="685px" viewBox="0 0 595 685"><defs/><g><g data-cell-id="0"><g data-cell-id="1"><g data-cell-id="nBm9qHvy_n2dD4bZHo7r-1"><g transform="translate(0.5,0.5)" style="filter: drop-shadow(rgba(0, 0, 0, 0.25) 2px 3px 2px);"><rect x="447" y="56" width="100" height="50" rx="7.5" ry="7.5" fill="#f0f0f0" stroke="#333333" pointer-events="all" style="fill: rgb(240, 240, 240); stroke: rgb(51, 51, 51);"/></g><g><g fill="#000000" font-family="Helvetica" text-anchor="middle" font-size="12px" style="fill: rgb(0, 0, 0);"><g transform="translate(497,86) scale(1)"><text><tspan style="font-family: &quot;IBM Plex Serif&quot;;"><tspan>MCP-251863</tspan></tspan></text></g></g></g></g><g data-cell-id="iP0_XUO6M5sA6egv-wVN-9"><g transform="translate(0.5,0.5)"><path d="M 327 16 L 327 37 L 327 36 L 327 47.88" fill="none" stroke="#000000" stroke-miterlimit="10" pointer-events="stroke" style="stroke: rgb(0, 0, 0);"/><path d="M 327 54.88 L 324.67 47.88 L 329.33 47.88 Z" fill="#000000" stroke="#000000" stroke-miterlimit="10" pointer-events="all" style="fill: rgb(0, 0, 0); stroke: rgb(0, 0, 0);"/></g><g data-cell-id="iP0_XUO6M5sA6egv-wVN-11"><g><g fill="#000000" font-family="Helvetica" text-anchor="middle" font-size="11px" style="fill: rgb(0, 0, 0);"><g transform="translate(327.45,10.95) scale(1)"><text><tspan style="font-family: &quot;IBM Plex Serif&quot;;"><tspan>Inverter- CAN</tspan></tspan></text></g></g></g></g></g><g data-cell-id="nBm9qHvy_n2dD4bZHo7r-2"><g transform="translate(0.5,0.5)" style="filter: drop-shadow(rgba(0, 0, 0, 0.25) 2px 3px 2px);"><rect x="277" y="56" width="100" height="50" rx="6" ry="6" fill="#f0f0f0" stroke="#333333" pointer-events="all" style="fill: rgb(240, 240, 240); stroke: rgb(51, 51, 51);"/></g><g><g fill="#000000" font-family="Helvetica" text-anchor="middle" font-size="12px" style="fill: rgb(0, 0, 0);"><g transform="translate(327,86) scale(1)"><text><tspan style="font-family: &quot;IBM Plex Serif&quot;;"><tspan>MCP-251863</tspan></tspan></text></g></g></g></g><g data-cell-id="nBm9qHvy_n2dD4bZHo7r-3"><g transform="translate(0.5,0.5)" style="filter: drop-shadow(rgba(0, 0, 0, 0.25) 2px 3px 2px);"><rect x="107" y="56" width="100" height="50" rx="7.5" ry="7.5" fill="#f0f0f0" stroke="#333333" pointer-events="all" style="fill: rgb(240, 240, 240); stroke: rgb(51, 51, 51);"/></g><g><g fill="#000000" font-family="Helvetica" text-anchor="middle" font-size="12px" style="fill: rgb(0, 0, 0);"><g transform="translate(157,86) scale(1)"><text><tspan style="font-family: &quot;IBM Plex Serif&quot;;"><tspan>MCP-251863</tspan></tspan></text></g></g></g></g><g data-cell-id="nBm9qHvy_n2dD4bZHo7r-4"><g transform="translate(0.5,0.5)" style="filter: drop-shadow(rgba(0, 0, 0, 0.25) 2px 3px 2px);"><rect x="67" y="186" width="520" height="410" rx="6" ry="6" fill="#fcfcfc" stroke="#666666" stroke-dasharray="8 8" pointer-events="all" style="fill: rgb(252, 252, 252); stroke: rgb(102, 102, 102);"/></g><g><g fill="#333333" font-family="Helvetica" text-anchor="middle" font-size="12px" style="fill: rgb(51, 51, 51);"><g transform="translate(327,204) scale(1)"><text><tspan style="font-family: &quot;IBM Plex Serif&quot;;"><tspan>RP2350- Mikrocontroller</tspan></tspan></text></g></g></g></g><g data-cell-id="Ie4Oo8BAXoXVANN99A5c-5"><g transform="translate(0.5,0.5)"><path d="M 322 266 L 322 297.88" fill="none" stroke="#000000" stroke-miterlimit="10" pointer-events="stroke" style="stroke: rgb(0, 0, 0);"/><path d="M 322 304.88 L 319.67 297.88 L 324.33 297.88 Z" fill="#000000" stroke="#000000" stroke-miterlimit="10" pointer-events="all" style="fill: rgb(0, 0, 0); stroke: rgb(0, 0, 0);"/></g></g><g data-cell-id="nBm9qHvy_n2dD4bZHo7r-5"><g transform="translate(0.5,0.5)" style="filter: drop-shadow(rgba(0, 0, 0, 0.25) 2px 3px 2px);"><rect x="272" y="216" width="100" height="50" rx="7.5" ry="7.5" fill="#f0f0f0" stroke="#333333" pointer-events="all" style="fill: rgb(240, 240, 240); stroke: rgb(51, 51, 51);"/></g><g><g fill="#000000" font-family="Helvetica" text-anchor="middle" font-size="12px" style="fill: rgb(0, 0, 0);"><g transform="translate(322,246) scale(1)"><text><tspan style="font-family: &quot;IBM Plex Serif&quot;;"><tspan>RISCV- Core 0</tspan></tspan></text></g></g></g></g><g data-cell-id="7QZWiwCLyc3cwctD6MXI-5"><g transform="translate(0.5,0.5)"><path d="M 297 356 L 297 366 Q 297 376 287 376 L 262 376 Q 252 376 252 386 L 252 497.88" fill="none" stroke="#000000" stroke-miterlimit="10" pointer-events="stroke" style="stroke: rgb(0, 0, 0);"/><path d="M 252 504.88 L 249.67 497.88 L 254.33 497.88 Z" fill="#000000" stroke="#000000" stroke-miterlimit="10" pointer-events="all" style="fill: rgb(0, 0, 0); stroke: rgb(0, 0, 0);"/></g></g><g data-cell-id="Ie4Oo8BAXoXVANN99A5c-7"><g transform="translate(0.5,0.5)"><path d="M 380.12 331 L 438.88 331" fill="none" stroke="#000000" stroke-miterlimit="10" pointer-events="stroke" style="stroke: rgb(0, 0, 0);"/><path d="M 373.12 331 L 380.12 328.67 L 380.12 333.33 Z" fill="#000000" stroke="#000000" stroke-miterlimit="10" pointer-events="all" style="fill: rgb(0, 0, 0); stroke: rgb(0, 0, 0);"/><path d="M 445.88 331 L 438.88 333.33 L 438.88 328.67 Z" fill="#000000" stroke="#000000" stroke-miterlimit="10" pointer-events="all" style="fill: rgb(0, 0, 0); stroke: rgb(0, 0, 0);"/></g></g><g data-cell-id="nBm9qHvy_n2dD4bZHo7r-7"><g transform="translate(0.5,0.5)" style="filter: drop-shadow(rgba(0, 0, 0, 0.25) 2px 3px 2px);"><rect x="272" y="306" width="100" height="50" rx="7.5" ry="7.5" fill="#f0f0f0" stroke="#333333" pointer-events="all" style="fill: rgb(240, 240, 240); stroke: rgb(51, 51, 51);"/></g><g><g fill="#000000" font-family="Helvetica" text-anchor="middle" font-size="12px" style="fill: rgb(0, 0, 0);"><g transform="translate(322,336) scale(1)"><text><tspan style="font-family: &quot;IBM Plex Serif&quot;;"><tspan>DMA</tspan></tspan></text></g></g></g></g><g data-cell-id="iP0_XUO6M5sA6egv-wVN-22"><g transform="translate(0.5,0.5)"><path d="M 202 241 L 217 241 Q 227 241 227 251 L 227 309 Q 227 319 237 319 L 263.88 319" fill="none" stroke="#000000" stroke-miterlimit="10" pointer-events="stroke" style="stroke: rgb(0, 0, 0);"/><path d="M 270.88 319 L 263.88 321.33 L 263.88 316.67 Z" fill="#000000" stroke="#000000" stroke-miterlimit="10" pointer-events="all" style="fill: rgb(0, 0, 0); stroke: rgb(0, 0, 0);"/></g></g><g data-cell-id="nBm9qHvy_n2dD4bZHo7r-8"><g transform="translate(0.5,0.5)" style="filter: drop-shadow(rgba(0, 0, 0, 0.25) 2px 3px 2px);"><rect x="102" y="216" width="100" height="50" rx="7.5" ry="7.5" fill="#f0f0f0" stroke="#333333" pointer-events="all" style="fill: rgb(240, 240, 240); stroke: rgb(51, 51, 51);"/></g><g><g fill="#000000" font-family="Helvetica" text-anchor="middle" font-size="12px" style="fill: rgb(0, 0, 0);"><g transform="translate(152,246) scale(1)"><text><tspan style="font-family: &quot;IBM Plex Serif&quot;;"><tspan>PIO-SM 0</tspan></tspan></text></g></g></g></g><g data-cell-id="nBm9qHvy_n2dD4bZHo7r-11"><g transform="translate(0.5,0.5)" style="filter: drop-shadow(rgba(0, 0, 0, 0.25) 2px 3px 2px);"><rect x="202" y="626" width="100" height="50" rx="10" ry="10" fill="#f0f0f0" stroke="#333333" pointer-events="all" style="fill: rgb(240, 240, 240); stroke: rgb(51, 51, 51);"/></g><g><g fill="#000000" font-family="Helvetica" text-anchor="middle" font-size="12px" style="fill: rgb(0, 0, 0);"><g transform="translate(252,656) scale(1)"><text><tspan style="font-family: &quot;IBM Plex Serif&quot;;"><tspan>SD-Card</tspan></tspan></text></g></g></g></g><g data-cell-id="7QZWiwCLyc3cwctD6MXI-3"><g transform="translate(0.5,0.5)"><path d="M 252 556 L 252 617.88" fill="none" stroke="#000000" stroke-miterlimit="10" pointer-events="stroke" style="stroke: rgb(0, 0, 0);"/><path d="M 252 624.88 L 249.67 617.88 L 254.33 617.88 Z" fill="#000000" stroke="#000000" stroke-miterlimit="10" pointer-events="all" style="fill: rgb(0, 0, 0); stroke: rgb(0, 0, 0);"/></g></g><g data-cell-id="nBm9qHvy_n2dD4bZHo7r-27"><g transform="translate(0.5,0.5)" style="filter: drop-shadow(rgba(0, 0, 0, 0.25) 2px 3px 2px);"><rect x="202" y="506" width="100" height="50" rx="10" ry="10" fill="#f0f0f0" stroke="#333333" pointer-events="all" style="fill: rgb(240, 240, 240); stroke: rgb(51, 51, 51);"/></g><g><g fill="#000000" font-family="Helvetica" text-anchor="middle" font-size="12px" style="fill: rgb(0, 0, 0);"><g transform="translate(252,536) scale(1)"><text><tspan style="font-family: &quot;IBM Plex Serif&quot;;"><tspan>PIO-SM 3</tspan></tspan></text></g></g></g></g><g data-cell-id="iP0_XUO6M5sA6egv-wVN-25"><g transform="translate(0.5,0.5)"><path d="M 202 421 L 217 421 Q 227 421 227 411 L 227 353.55 Q 227 343.55 237 343.54 L 263.88 343.51" fill="none" stroke="#000000" stroke-miterlimit="10" pointer-events="stroke" style="stroke: rgb(0, 0, 0);"/><path d="M 270.88 343.5 L 263.88 345.84 L 263.88 341.17 Z" fill="#000000" stroke="#000000" stroke-miterlimit="10" pointer-events="all" style="fill: rgb(0, 0, 0); stroke: rgb(0, 0, 0);"/></g></g><g data-cell-id="nBm9qHvy_n2dD4bZHo7r-10"><g transform="translate(0.5,0.5)" style="filter: drop-shadow(rgba(0, 0, 0, 0.25) 2px 3px 2px);"><rect x="102" y="396" width="100" height="50" rx="7.5" ry="7.5" fill="#f0f0f0" stroke="#333333" pointer-events="all" style="fill: rgb(240, 240, 240); stroke: rgb(51, 51, 51);"/></g><g><g fill="#000000" font-family="Helvetica" text-anchor="middle" font-size="12px" style="fill: rgb(0, 0, 0);"><g transform="translate(152,426) scale(1)"><text><tspan style="font-family: &quot;IBM Plex Serif&quot;;"><tspan>PIO-SM 2</tspan></tspan></text></g></g></g></g><g data-cell-id="Ie4Oo8BAXoXVANN99A5c-6"><g transform="translate(0.5,0.5)"><path d="M 322 396 L 322 364.12" fill="none" stroke="#000000" stroke-miterlimit="10" pointer-events="stroke" style="stroke: rgb(0, 0, 0);"/><path d="M 322 357.12 L 324.33 364.12 L 319.67 364.12 Z" fill="#000000" stroke="#000000" stroke-miterlimit="10" pointer-events="all" style="fill: rgb(0, 0, 0); stroke: rgb(0, 0, 0);"/></g></g><g data-cell-id="Ie4Oo8BAXoXVANN99A5c-10"><g transform="translate(0.5,0.5)"><path d="M 322 446 L 322 466 Q 322 476 332 476 L 387 476 Q 397 476 397 486 L 397 497.88" fill="none" stroke="#000000" stroke-miterlimit="10" pointer-events="stroke" style="stroke: rgb(0, 0, 0);"/><path d="M 397 504.88 L 394.67 497.88 L 399.33 497.88 Z" fill="#000000" stroke="#000000" stroke-miterlimit="10" pointer-events="all" style="fill: rgb(0, 0, 0); stroke: rgb(0, 0, 0);"/></g></g><g data-cell-id="nBm9qHvy_n2dD4bZHo7r-6"><g transform="translate(0.5,0.5)" style="filter: drop-shadow(rgba(0, 0, 0, 0.25) 2px 3px 2px);"><rect x="272" y="396" width="100" height="50" rx="7.5" ry="7.5" fill="#f0f0f0" stroke="#000000" pointer-events="all" style="fill: rgb(240, 240, 240); stroke: rgb(0, 0, 0);"/></g><g><g fill="#000000" font-family="Helvetica" text-anchor="middle" font-size="12px" style="fill: rgb(0, 0, 0);"><g transform="translate(322,426) scale(1)"><text><tspan style="font-family: &quot;IBM Plex Serif&quot;;"><tspan>RISCV- Core 1</tspan></tspan></text></g></g></g></g><g data-cell-id="7QZWiwCLyc3cwctD6MXI-2"><g transform="translate(0.5,0.5)"><path d="M 397 556 L 397 617.88" fill="none" stroke="#000000" stroke-miterlimit="10" pointer-events="stroke" style="stroke: rgb(0, 0, 0);"/><path d="M 397 624.88 L 394.67 617.88 L 399.33 617.88 Z" fill="#000000" stroke="#000000" stroke-miterlimit="10" pointer-events="all" style="fill: rgb(0, 0, 0); stroke: rgb(0, 0, 0);"/></g></g><g data-cell-id="nBm9qHvy_n2dD4bZHo7r-30"><g transform="translate(0.5,0.5)" style="filter: drop-shadow(rgba(0, 0, 0, 0.25) 2px 3px 2px);"><rect x="347" y="506" width="100" height="50" rx="10" ry="10" fill="#f0f0f0" stroke="#333333" pointer-events="all" style="fill: rgb(240, 240, 240); stroke: rgb(51, 51, 51);"/></g><g><g fill="#000000" font-family="Helvetica" text-anchor="middle" font-size="12px" style="fill: rgb(0, 0, 0);"><g transform="translate(397,536) scale(1)"><text><tspan style="font-family: &quot;IBM Plex Serif&quot;;"><tspan>USB</tspan></tspan></text></g></g></g></g><g data-cell-id="nBm9qHvy_n2dD4bZHo7r-31"><g transform="translate(0.5,0.5)" style="filter: drop-shadow(rgba(0, 0, 0, 0.25) 2px 3px 2px);"><rect x="347" y="626" width="100" height="50" rx="10" ry="10" fill="#f0f0f0" stroke="#333333" pointer-events="all" style="fill: rgb(240, 240, 240); stroke: rgb(51, 51, 51);"/></g><g><g fill="#000000" font-family="Helvetica" text-anchor="middle" font-size="12px" style="fill: rgb(0, 0, 0);"><g transform="translate(397,656) scale(1)"><text><tspan style="font-family: &quot;IBM Plex Serif&quot;;"><tspan>User- PC</tspan></tspan></text></g></g></g></g><g data-cell-id="iP0_XUO6M5sA6egv-wVN-23"><g transform="translate(0.5,0.5)"><path d="M 202 331 L 237 331 Q 247 331 255.44 331 L 263.88 331" fill="none" stroke="#000000" stroke-miterlimit="10" pointer-events="stroke" style="stroke: rgb(0, 0, 0);"/><path d="M 270.88 331 L 263.88 333.33 L 263.88 328.67 Z" fill="#000000" stroke="#000000" stroke-miterlimit="10" pointer-events="all" style="fill: rgb(0, 0, 0); stroke: rgb(0, 0, 0);"/></g></g><g data-cell-id="nBm9qHvy_n2dD4bZHo7r-9"><g transform="translate(0.5,0.5)" style="filter: drop-shadow(rgba(0, 0, 0, 0.25) 2px 3px 2px);"><rect x="102" y="306" width="100" height="50" rx="7.5" ry="7.5" fill="#f0f0f0" stroke="#333333" pointer-events="all" style="fill: rgb(240, 240, 240); stroke: rgb(51, 51, 51);"/></g><g><g fill="#000000" font-family="Helvetica" text-anchor="middle" font-size="12px" style="fill: rgb(0, 0, 0);"><g transform="translate(152,336) scale(1)"><text><tspan style="font-family: &quot;IBM Plex Serif&quot;;"><tspan>PIO-SM 1</tspan></tspan></text></g></g></g></g><g data-cell-id="Ie4Oo8BAXoXVANN99A5c-8"><g transform="translate(0.5,0.5)"><path d="M 497 364.12 L 497 411 Q 497 421 487 421 L 380.12 421" fill="none" stroke="#000000" stroke-miterlimit="10" pointer-events="stroke" style="stroke: rgb(0, 0, 0);"/><path d="M 497 357.12 L 499.33 364.12 L 494.67 364.12 Z" fill="#000000" stroke="#000000" stroke-miterlimit="10" pointer-events="all" style="fill: rgb(0, 0, 0); stroke: rgb(0, 0, 0);"/><path d="M 373.12 421 L 380.12 418.67 L 380.12 423.33 Z" fill="#000000" stroke="#000000" stroke-miterlimit="10" pointer-events="all" style="fill: rgb(0, 0, 0); stroke: rgb(0, 0, 0);"/></g></g><g data-cell-id="iP0_XUO6M5sA6egv-wVN-4"><g transform="translate(0.5,0.5)" style="filter: drop-shadow(rgba(0, 0, 0, 0.25) 2px 3px 2px);"><rect x="447" y="306" width="100" height="50" rx="7.5" ry="7.5" fill="#f0f0f0" stroke="#000000" pointer-events="all" style="fill: rgb(240, 240, 240); stroke: rgb(0, 0, 0);"/></g><g><g fill="#000000" font-family="Helvetica" text-anchor="middle" font-size="12px" style="fill: rgb(0, 0, 0);"><g transform="translate(497,336) scale(1)"><text><tspan style="font-family: &quot;IBM Plex Serif&quot;;"><tspan>RAM- Buffer</tspan></tspan></text></g></g></g></g><g data-cell-id="iP0_XUO6M5sA6egv-wVN-5"><g transform="translate(0.5,0.5)"><path d="M 137 106 L 137 116 Q 137 126 127 126 L 17 126 Q 7 126 7 136 L 7 411 Q 7 421 17 421 L 93.88 421" fill="none" stroke="#000000" stroke-miterlimit="10" pointer-events="stroke" style="stroke: rgb(0, 0, 0);"/><path d="M 100.88 421 L 93.88 423.33 L 93.88 418.67 Z" fill="#000000" stroke="#000000" stroke-miterlimit="10" pointer-events="all" style="fill: rgb(0, 0, 0); stroke: rgb(0, 0, 0);"/></g><g data-cell-id="iP0_XUO6M5sA6egv-wVN-16"><g><g fill="#000000" font-family="'IBM Plex Serif'" text-anchor="middle" font-size="11px" style="fill: rgb(0, 0, 0);"><g transform="translate(62.91,120.95) scale(1)"><text><tspan>SPI</tspan></text></g></g></g></g></g><g data-cell-id="iP0_XUO6M5sA6egv-wVN-6"><g transform="translate(0.5,0.5)"><path d="M 307.2 106 L 307.19 136 Q 307.18 146 297.18 146 L 37 146 Q 27 146 27 156 L 27 321 Q 27 331 37 331 L 93.88 331" fill="none" stroke="#000000" stroke-miterlimit="10" pointer-events="stroke" style="stroke: rgb(0, 0, 0);"/><path d="M 100.88 331 L 93.88 333.33 L 93.88 328.67 Z" fill="#000000" stroke="#000000" stroke-miterlimit="10" pointer-events="all" style="fill: rgb(0, 0, 0); stroke: rgb(0, 0, 0);"/></g><g data-cell-id="iP0_XUO6M5sA6egv-wVN-15"><g><g fill="#000000" font-family="Helvetica" text-anchor="middle" font-size="11px" style="fill: rgb(0, 0, 0);"><g transform="translate(156.91,140.95) scale(1)"><text><tspan style="font-family: &quot;IBM Plex Serif&quot;;"><tspan>SPI</tspan></tspan></text></g></g></g></g></g><g data-cell-id="iP0_XUO6M5sA6egv-wVN-7"><g transform="translate(0.5,0.5)"><path d="M 477.5 105.55 L 477.54 156 Q 477.55 166 467.55 166 L 57 166 Q 47 166 47 176 L 47 231 Q 47 241 57 241 L 93.88 241" fill="none" stroke="#000000" stroke-miterlimit="10" pointer-events="stroke" style="stroke: rgb(0, 0, 0);"/><path d="M 100.88 241 L 93.88 243.33 L 93.88 238.67 Z" fill="#000000" stroke="#000000" stroke-miterlimit="10" pointer-events="all" style="fill: rgb(0, 0, 0); stroke: rgb(0, 0, 0);"/></g><g data-cell-id="iP0_XUO6M5sA6egv-wVN-14"><g><g fill="#000000" font-family="Helvetica" text-anchor="middle" font-size="11px" style="fill: rgb(0, 0, 0);"><g transform="translate(409.36,160.95) scale(1)"><text><tspan style="font-family: &quot;IBM Plex Serif&quot;;"><tspan>SPI</tspan></tspan></text></g></g></g></g></g><g data-cell-id="Ie4Oo8BAXoXVANN99A5c-1"><g transform="translate(0.5,0.5)"><path d="M 496.79 16 L 496.82 37 L 496.82 36 L 496.8 47.88" fill="none" stroke="#000000" stroke-miterlimit="10" pointer-events="stroke" style="stroke: rgb(0, 0, 0);"/><path d="M 496.79 54.88 L 494.47 47.88 L 499.13 47.89 Z" fill="#000000" stroke="#000000" stroke-miterlimit="10" pointer-events="all" style="fill: rgb(0, 0, 0); stroke: rgb(0, 0, 0);"/></g><g data-cell-id="Ie4Oo8BAXoXVANN99A5c-2"><g><g fill="#000000" font-family="Helvetica" text-anchor="middle" font-size="11px" style="fill: rgb(0, 0, 0);"><g transform="translate(497.27,10.95) scale(1)"><text><tspan style="font-family: &quot;IBM Plex Serif&quot;;"><tspan>Driverless- CAN</tspan></tspan></text></g></g></g></g></g><g data-cell-id="Ie4Oo8BAXoXVANN99A5c-3"><g transform="translate(0.5,0.5)"><path d="M 156.58 16 L 156.64 37 L 156.64 36 L 156.6 47.88" fill="none" stroke="#000000" stroke-miterlimit="10" pointer-events="stroke" style="stroke: rgb(0, 0, 0);"/><path d="M 156.58 54.88 L 154.27 47.88 L 158.94 47.89 Z" fill="#000000" stroke="#000000" stroke-miterlimit="10" pointer-events="all" style="fill: rgb(0, 0, 0); stroke: rgb(0, 0, 0);"/></g><g data-cell-id="Ie4Oo8BAXoXVANN99A5c-4"><g><g fill="#000000" font-family="Helvetica" text-anchor="middle" font-size="11px" style="fill: rgb(0, 0, 0);"><g transform="translate(157.09,10.95) scale(1)"><text><tspan style="font-family: &quot;IBM Plex Serif&quot;;"><tspan>Main- CAN</tspan></tspan></text></g></g></g></g></g><g data-cell-id="QgjbsT7xt767kNa_PzjN-2"><g transform="translate(0.5,0.5)"><path d="M 352 106 L 352 116 Q 352 126 362 126 L 474.52 126 M 480.52 126 M 480.52 126 L 497 126 Q 507 126 507 136 L 507 231 Q 507 241 497 241 L 380.12 241" fill="none" stroke="#000000" stroke-miterlimit="10" stroke-dasharray="1 2" pointer-events="stroke" style="stroke: rgb(0, 0, 0);"/><path d="M 373.12 241 L 380.12 238.67 L 380.12 243.33 Z" fill="#000000" stroke="#000000" stroke-miterlimit="10" pointer-events="all" style="fill: rgb(0, 0, 0); stroke: rgb(0, 0, 0);"/></g></g><g data-cell-id="QgjbsT7xt767kNa_PzjN-1"><g transform="translate(0.5,0.5)"><path d="M 522 106 L 522 243.55 Q 522 253.55 512 253.54 L 380.12 253.5" fill="none" stroke="#000000" stroke-miterlimit="10" stroke-dasharray="1 2" pointer-events="stroke" style="stroke: rgb(0, 0, 0);"/><path d="M 373.12 253.5 L 380.12 251.17 L 380.12 255.84 Z" fill="#000000" stroke="#000000" stroke-miterlimit="10" pointer-events="all" style="fill: rgb(0, 0, 0); stroke: rgb(0, 0, 0);"/></g></g><g data-cell-id="QgjbsT7xt767kNa_PzjN-3"><g transform="translate(0.5,0.5)"><path d="M 182 106 L 182 126 Q 182 136 192 136 L 304.19 136 M 310.19 136 M 310.19 136 L 474.52 136 M 480.52 136 M 480.52 136 L 488.76 136 Q 497 136 497 146 L 497 218.55 Q 497 228.55 487 228.54 L 380.12 228.5" fill="none" stroke="#000000" stroke-miterlimit="10" stroke-dasharray="1 2" pointer-events="stroke" style="stroke: rgb(0, 0, 0);"/><path d="M 373.12 228.5 L 380.12 226.17 L 380.12 230.84 Z" fill="#000000" stroke="#000000" stroke-miterlimit="10" pointer-events="all" style="fill: rgb(0, 0, 0); stroke: rgb(0, 0, 0);"/></g><g data-cell-id="QgjbsT7xt767kNa_PzjN-4"><g><g fill="#000000" font-family="'IBM Plex Serif'" text-anchor="middle" font-size="11px" style="fill: rgb(0, 0, 0);"><g transform="translate(452.27,220.48) scale(1)"><text><tspan>IRQ</tspan></text></g></g></g></g></g></g></g></g></svg>