<?xml version="1.0" encoding="UTF-8"?>
<!DOCTYPE svg PUBLIC "-//W3C//DTD SVG 1.1//EN" "http://www.w3.org/Graphics/SVG/1.1/DTD/svg11.dtd">
<svg xmlns="http://www.w3.org/2000/svg" style="background: transparent; background-color: transparent; color-scheme: light;" xmlns:xlink="http://www.w3.org/1999/xlink" version="1.1" width="534px" height="568px" viewBox="0 0 534 568"><defs/><g><g data-cell-id="0"><g data-cell-id="1"><g data-cell-id="wK8-QhigubIF80eh4kPi-1"><g transform="translate(0.5,0.5)"><path d="M 35 537 L 516.88 537" fill="none" stroke="#000000" stroke-miterlimit="10" pointer-events="stroke" style="stroke: rgb(0, 0, 0);"/><path d="M 523.88 537 L 516.88 539.33 L 516.88 534.67 Z" fill="#000000" stroke="#000000" stroke-miterlimit="10" pointer-events="all" style="fill: rgb(0, 0, 0); stroke: rgb(0, 0, 0);"/></g></g><g data-cell-id="wK8-QhigubIF80eh4kPi-2"><g transform="translate(0.5,0.5)"><path d="M 35 537 L 35 15.12" fill="none" stroke="#000000" stroke-miterlimit="10" pointer-events="stroke" style="stroke: rgb(0, 0, 0);"/><path d="M 35 8.12 L 37.33 15.12 L 32.67 15.12 Z" fill="#000000" stroke="#000000" stroke-miterlimit="10" pointer-events="all" style="fill: rgb(0, 0, 0); stroke: rgb(0, 0, 0);"/></g></g><g data-cell-id="Com33YHANP7Wdg20jBLV-15"><g transform="translate(0.5,0.5)"><path d="M 125 97 L 125.05 112 Q 125.09 122 135.09 122 L 145.09 122 Q 155.09 122 155.06 130.44 L 155.03 138.88" fill="none" stroke="#000000" stroke-miterlimit="10" pointer-events="stroke" style="stroke: rgb(0, 0, 0);"/><path d="M 155 145.88 L 152.7 138.87 L 157.36 138.89 Z" fill="#000000" stroke="#000000" stroke-miterlimit="10" pointer-events="all" style="fill: rgb(0, 0, 0); stroke: rgb(0, 0, 0);"/></g></g><g data-cell-id="Com33YHANP7Wdg20jBLV-1"><g transform="translate(0.5,0.5)" style="filter: drop-shadow(rgba(0, 0, 0, 0.25) 2px 3px 2px);"><rect x="75" y="47" width="100" height="50" rx="10" ry="10" fill="#f5f5f5" stroke="#333333" pointer-events="all" style="fill: rgb(245, 245, 245); stroke: rgb(51, 51, 51);"/></g><g><g fill="#000000" font-family="'IBM Plex Serif'" text-anchor="middle" font-size="12px" style="fill: rgb(0, 0, 0);"><text x="125" y="63">V1. System- </text><text x="125" y="77">Anforderungs-</text><text x="125" y="91">Analyse</text></g></g></g><g data-cell-id="Com33YHANP7Wdg20jBLV-2"><g transform="translate(0.5,0.5)"><rect x="-15" y="267" width="60" height="30" fill="none" stroke="none" transform="rotate(-90,15,282)" pointer-events="all"/></g><g><g fill="#000000" font-family="'IBM Plex Serif'" text-anchor="middle" transform="rotate(-90,15,282)" font-size="12px" style="fill: rgb(0, 0, 0);"><text x="15" y="287">Abstraktionsgrad</text></g></g></g><g data-cell-id="Com33YHANP7Wdg20jBLV-3"><g transform="translate(0.5,0.5)"><rect x="265" y="537" width="60" height="30" fill="none" stroke="none" pointer-events="all"/></g><g><g fill="#000000" font-family="'IBM Plex Serif'" text-anchor="middle" font-size="12px" style="fill: rgb(0, 0, 0);"><text x="295" y="557">Zeit</text></g></g></g><g data-cell-id="Com33YHANP7Wdg20jBLV-16"><g transform="translate(0.5,0.5)"><path d="M 155 197 L 155.05 212 Q 155.09 222 165.09 222 L 175.09 222 Q 185.09 222 185.06 230.44 L 185.03 238.88" fill="none" stroke="#000000" stroke-miterlimit="10" pointer-events="stroke" style="stroke: rgb(0, 0, 0);"/><path d="M 185 245.88 L 182.7 238.87 L 187.36 238.89 Z" fill="#000000" stroke="#000000" stroke-miterlimit="10" pointer-events="all" style="fill: rgb(0, 0, 0); stroke: rgb(0, 0, 0);"/></g></g><g data-cell-id="Com33YHANP7Wdg20jBLV-4"><g transform="translate(0.5,0.5)" style="filter: drop-shadow(rgba(0, 0, 0, 0.25) 2px 3px 2px);"><rect x="105" y="147" width="100" height="50" rx="10" ry="10" fill="#f5f5f5" stroke="#333333" pointer-events="all" style="fill: rgb(245, 245, 245); stroke: rgb(51, 51, 51);"/></g><g><g fill="#000000" font-family="'IBM Plex Serif'" text-anchor="middle" font-size="12px" style="fill: rgb(0, 0, 0);"><text x="155" y="170">V2. System- </text><text x="155" y="184">Architektur</text></g></g></g><g data-cell-id="Com33YHANP7Wdg20jBLV-17"><g transform="translate(0.5,0.5)"><path d="M 185 297 L 185.05 312 Q 185.09 322 195.09 322 L 205.09 322 Q 215.09 322 215.06 330.44 L 215.03 338.88" fill="none" stroke="#000000" stroke-miterlimit="10" pointer-events="stroke" style="stroke: rgb(0, 0, 0);"/><path d="M 215 345.88 L 212.7 338.87 L 217.36 338.89 Z" fill="#000000" stroke="#000000" stroke-miterlimit="10" pointer-events="all" style="fill: rgb(0, 0, 0); stroke: rgb(0, 0, 0);"/></g></g><g data-cell-id="Com33YHANP7Wdg20jBLV-5"><g transform="translate(0.5,0.5)" style="filter: drop-shadow(rgba(0, 0, 0, 0.25) 2px 3px 2px);"><rect x="135" y="247" width="100" height="50" rx="10" ry="10" fill="#f5f5f5" stroke="#333333" pointer-events="all" style="fill: rgb(245, 245, 245); stroke: rgb(51, 51, 51);"/></g><g><g fill="#000000" font-family="'IBM Plex Serif'" text-anchor="middle" font-size="12px" style="fill: rgb(0, 0, 0);"><text x="185" y="270">V3. System-</text><text x="185" y="284">Entwurf</text></g></g></g><g data-cell-id="Com33YHANP7Wdg20jBLV-19"><g transform="translate(0.5,0.5)"><path d="M 215 397 L 215.05 412 Q 215.09 422 225.09 422 L 260 422 Q 270 422 270 430.44 L 270 438.88" fill="none" stroke="#000000" stroke-miterlimit="10" pointer-events="stroke" style="stroke: rgb(0, 0, 0);"/><path d="M 270 445.88 L 267.67 438.88 L 272.33 438.88 Z" fill="#000000" stroke="#000000" stroke-miterlimit="10" pointer-events="all" style="fill: rgb(0, 0, 0); stroke: rgb(0, 0, 0);"/></g></g><g data-cell-id="Com33YHANP7Wdg20jBLV-6"><g transform="translate(0.5,0.5)" style="filter: drop-shadow(rgba(0, 0, 0, 0.25) 2px 3px 2px);"><rect x="165" y="347" width="100" height="50" rx="10" ry="10" fill="#f5f5f5" stroke="#333333" pointer-events="all" style="fill: rgb(245, 245, 245); stroke: rgb(51, 51, 51);"/></g><g><g fill="#000000" font-family="'IBM Plex Serif'" text-anchor="middle" font-size="12px" style="fill: rgb(0, 0, 0);"><text x="215" y="370">V4. Software- </text><text x="215" y="384">Architektur</text></g></g></g><g data-cell-id="Com33YHANP7Wdg20jBLV-20"><g transform="translate(0.5,0.5)"><path d="M 320 447 L 320 432 Q 320 422 330 422 L 365.09 422 Q 375.09 422 375.06 413.56 L 375.03 405.12" fill="none" stroke="#000000" stroke-miterlimit="10" pointer-events="stroke" style="stroke: rgb(0, 0, 0);"/><path d="M 375 398.12 L 377.36 405.11 L 372.7 405.13 Z" fill="#000000" stroke="#000000" stroke-miterlimit="10" pointer-events="all" style="fill: rgb(0, 0, 0); stroke: rgb(0, 0, 0);"/></g></g><g data-cell-id="Com33YHANP7Wdg20jBLV-7"><g transform="translate(0.5,0.5)" style="filter: drop-shadow(rgba(0, 0, 0, 0.25) 2px 3px 2px);"><rect x="245" y="447" width="100" height="50" rx="10" ry="10" fill="#f5f5f5" stroke="#333333" pointer-events="all" style="fill: rgb(245, 245, 245); stroke: rgb(51, 51, 51);"/></g><g><g fill="#000000" font-family="'IBM Plex Serif'" text-anchor="middle" font-size="12px" style="fill: rgb(0, 0, 0);"><text x="295" y="470">V5. Software- </text><text x="295" y="484">Entwurf</text></g></g></g><g data-cell-id="Com33YHANP7Wdg20jBLV-21"><g transform="translate(0.5,0.5)"><path d="M 375 347 L 375.05 332 Q 375.09 322 385.09 322 L 395.09 322 Q 405.09 322 405.06 313.56 L 405.03 305.12" fill="none" stroke="#000000" stroke-miterlimit="10" pointer-events="stroke" style="stroke: rgb(0, 0, 0);"/><path d="M 405 298.12 L 407.36 305.11 L 402.7 305.13 Z" fill="#000000" stroke="#000000" stroke-miterlimit="10" pointer-events="all" style="fill: rgb(0, 0, 0); stroke: rgb(0, 0, 0);"/></g></g><g data-cell-id="Com33YHANP7Wdg20jBLV-8"><g transform="translate(0.5,0.5)" style="filter: drop-shadow(rgba(0, 0, 0, 0.25) 2px 3px 2px);"><rect x="325" y="347" width="100" height="50" rx="10" ry="10" fill="#f5f5f5" stroke="#333333" pointer-events="all" style="fill: rgb(245, 245, 245); stroke: rgb(51, 51, 51);"/></g><g><g fill="#000000" font-family="'IBM Plex Serif'" text-anchor="middle" font-size="12px" style="fill: rgb(0, 0, 0);"><text x="375" y="370">V6. Unit-</text><text x="375" y="384">Test</text></g></g></g><g data-cell-id="Com33YHANP7Wdg20jBLV-22"><g transform="translate(0.5,0.5)"><path d="M 405 247 L 405.05 232 Q 405.09 222 415.09 222 L 425.09 222 Q 435.09 222 435.06 213.56 L 435.03 205.12" fill="none" stroke="#000000" stroke-miterlimit="10" pointer-events="stroke" style="stroke: rgb(0, 0, 0);"/><path d="M 435 198.12 L 437.36 205.11 L 432.7 205.13 Z" fill="#000000" stroke="#000000" stroke-miterlimit="10" pointer-events="all" style="fill: rgb(0, 0, 0); stroke: rgb(0, 0, 0);"/></g></g><g data-cell-id="Com33YHANP7Wdg20jBLV-9"><g transform="translate(0.5,0.5)" style="filter: drop-shadow(rgba(0, 0, 0, 0.25) 2px 3px 2px);"><rect x="355" y="247" width="100" height="50" rx="10" ry="10" fill="#f5f5f5" stroke="#333333" pointer-events="all" style="fill: rgb(245, 245, 245); stroke: rgb(51, 51, 51);"/></g><g><g fill="#000000" font-family="'IBM Plex Serif'" text-anchor="middle" font-size="12px" style="fill: rgb(0, 0, 0);"><text x="405" y="270">V7. Integra-</text><text x="405" y="284">tions- Test</text></g></g></g><g data-cell-id="Com33YHANP7Wdg20jBLV-23"><g transform="translate(0.5,0.5)"><path d="M 435 147 L 435.05 132 Q 435.09 122 445.09 122 L 455.09 122 Q 465.09 122 465.06 113.56 L 465.03 105.12" fill="none" stroke="#000000" stroke-miterlimit="10" pointer-events="stroke" style="stroke: rgb(0, 0, 0);"/><path d="M 465 98.12 L 467.36 105.11 L 462.7 105.13 Z" fill="#000000" stroke="#000000" stroke-miterlimit="10" pointer-events="all" style="fill: rgb(0, 0, 0); stroke: rgb(0, 0, 0);"/></g></g><g data-cell-id="Com33YHANP7Wdg20jBLV-10"><g transform="translate(0.5,0.5)" style="filter: drop-shadow(rgba(0, 0, 0, 0.25) 2px 3px 2px);"><rect x="385" y="147" width="100" height="50" rx="10" ry="10" fill="#f5f5f5" stroke="#333333" pointer-events="all" style="fill: rgb(245, 245, 245); stroke: rgb(51, 51, 51);"/></g><g><g fill="#000000" font-family="'IBM Plex Serif'" text-anchor="middle" font-size="12px" style="fill: rgb(0, 0, 0);"><text x="435" y="170">V8. System- </text><text x="435" y="184">Integration</text></g></g></g><g data-cell-id="Com33YHANP7Wdg20jBLV-11"><g transform="translate(0.5,0.5)" style="filter: drop-shadow(rgba(0, 0, 0, 0.25) 2px 3px 2px);"><rect x="415" y="47" width="100" height="50" rx="10" ry="10" fill="#f5f5f5" stroke="#333333" pointer-events="all" style="fill: rgb(245, 245, 245); stroke: rgb(51, 51, 51);"/></g><g><g fill="#000000" font-family="'IBM Plex Serif'" text-anchor="middle" font-size="12px" style="fill: rgb(0, 0, 0);"><text x="465" y="70">V9. Abnahme</text><text x="465" y="84"> und Nutzung</text></g></g></g></g></g></g></svg>